<svg
  xmlns="http://www.w3.org/2000/svg"
  id="Layer_1"
  data-name="Layer 1"
  viewBox="0 0 66 50"
  ><path
    fill="#006db6"
    d="M29.51 15.8H6.61v21.3h4.45v-8.81h6v-3.82h-6v-4.88h18a6.5 6.5 0 0 1 2.31.45 4.56 4.56 0 0 1 1.77 1.34 5.5 5.5 0 0 1 1 2.13 11.7 11.7 0 0 1 .31 2.82 10.5 10.5 0 0 1-.36 2.85 6 6 0 0 1-1.09 2.2 4.85 4.85 0 0 1-2 1.42 7.9 7.9 0 0 1-3 .49h-2.81v-8.78h-4.45v12.57H28a14.7 14.7 0 0 0 4.65-.69A8.83 8.83 0 0 0 38.3 31a13 13 0 0 0 .76-4.65q0-5.22-2.73-7.88a10.1 10.1 0 0 0-6.83-2.63m17.73-.07h4.23l8 21.31h-4.6l-5.4-16.24-2.59 7.64h2.91l1.06 3.68H45.7L44 37.08h-4.77z"
  ></path>
</svg>